<svg xmlns="http://www.w3.org/2000/svg" version="1.1" xmlns:xlink="http://www.w3.org/1999/xlink" xmlns:svgjs="http://svgjs.com/svgjs" width="1200" height="560" preserveAspectRatio="none" viewBox="0 0 1200 560"><g mask="url(&quot;#SvgjsMask1366&quot;)" fill="none"><rect width="1200" height="560" x="0" y="0" fill="url(#SvgjsRadialGradient1367)"></rect><path d="M1037.1386531946828 319.8257451246525L1126.289951254554 285.6037681227453 1092.0679742526465 196.45247006287428 1002.9166761927756 230.67444706478148z" fill="rgba(28, 83, 142, 0.4)" class="triangle-float1"></path><path d="M618.7349000410858 383.6555091777636L552.1248489992714 508.9307950301739 744.0101858934961 450.265560219578z" fill="rgba(28, 83, 142, 0.4)" class="triangle-float1"></path><path d="M1080.68,451.138C1117.614,453.252,1152.483,430.739,1169.481,397.881C1185.321,367.261,1176.101,331.303,1157.781,302.098C1140.757,274.959,1112.701,257.289,1080.68,256.316C1046.79,255.286,1011.349,267.441,995.008,297.149C979.101,326.069,991.853,359.788,1007.9,388.631C1024.564,418.583,1046.461,449.179,1080.68,451.138" fill="rgba(28, 83, 142, 0.4)" class="triangle-float2"></path><path d="M1094.2035948236664 369.3919550327842L994.3535120010007 413.734101920279 1070.6267914812556 471.21014058724757z" fill="rgba(28, 83, 142, 0.4)" class="triangle-float1"></path><path d="M476.211,173.775C497.991,174.575,520.782,166.059,530.908,146.759C540.539,128.404,530.56,107.735,520.317,89.715C509.901,71.389,497.29,50.451,476.211,50.527C455.203,50.603,442.357,71.399,432.652,90.031C423.88,106.873,419.295,126.135,428.057,142.981C437.48,161.098,455.804,173.025,476.211,173.775" fill="rgba(28, 83, 142, 0.4)" class="triangle-float3"></path><path d="M50.2315611632267 59.39058632442296L106.80348829343583 150.1168804678747 152.11568739494697 68.3715093923816z" fill="rgba(28, 83, 142, 0.4)" class="triangle-float1"></path><path d="M1273.264,312.633C1323.087,314.909,1375.61,304.407,1403.859,263.303C1435.804,216.821,1444.614,154.086,1415.375,105.856C1386.949,58.966,1328.098,47.823,1273.264,47.88C1218.558,47.937,1157.851,58.12,1131.66,106.149C1106.144,152.94,1131.678,208.293,1161.82,252.246C1187.432,289.593,1228.026,310.566,1273.264,312.633" fill="rgba(28, 83, 142, 0.4)" class="triangle-float3"></path><path d="M778.3407563118205 187.11521355918154L788.158692689052 46.7121820987613 647.7556612286319 36.894245721529785 637.9377248514003 177.29727718195002z" fill="rgba(28, 83, 142, 0.4)" class="triangle-float3"></path><path d="M788.6089503393537 148.71728247464998L679.8205489634051 23.570542459680127 554.6738089484352 132.3589438356287 663.4622103243838 257.50568385059853z" fill="rgba(28, 83, 142, 0.4)" class="triangle-float2"></path><path d="M210.16097027655195 256.73166203041404L305.8444583019973 120.35827955692466 161.0142607406984 105.13601239886756z" fill="rgba(28, 83, 142, 0.4)" class="triangle-float3"></path><path d="M267.4316564905766 105.17367061598964L317.16823982394146 207.14877849141652 369.4067643660035 55.43708728262478z" fill="rgba(28, 83, 142, 0.4)" class="triangle-float1"></path><path d="M463.1472520530453 453.72717975126943L499.8879848849991 544.6636845685188 554.0837568702946 416.9864469193156z" fill="rgba(28, 83, 142, 0.4)" class="triangle-float1"></path><path d="M1151.6078086344112 185.03958482087484L1050.2504860683239 128.72996117304862 1050.2504860683239 230.0872837391358z" fill="rgba(28, 83, 142, 0.4)" class="triangle-float3"></path><path d="M733.9026149817629 239.0523838670854L843.0885270811184 302.2297180349413 845.0130367332441 191.9746339066271z" fill="rgba(28, 83, 142, 0.4)" class="triangle-float2"></path><path d="M701.5129441679019 34.528369401730025L535.6287263474803 31.632849609107986 532.7332065548583 197.51706742952953 698.6174243752798 200.4125872221516z" fill="rgba(28, 83, 142, 0.4)" class="triangle-float2"></path><path d="M841.1606005086161 405.36534355051083L978.1036795512276 422.1798393794497 857.975096337555 268.4222645078993z" fill="rgba(28, 83, 142, 0.4)" class="triangle-float3"></path></g><defs><mask id="SvgjsMask1366"><rect width="1200" height="560" fill="#ffffff"></rect></mask><radialGradient cx="50%" cy="0%" r="820.73" gradientUnits="userSpaceOnUse" id="SvgjsRadialGradient1367"><stop stop-color="#0e2a47" offset="0"></stop><stop stop-color="rgba(0, 0, 0, 1)" offset="0.76"></stop><stop stop-color="rgba(0, 0, 0, 1)" offset="1"></stop></radialGradient><style>
            @keyframes float1 {
                0%{transform: translate(0, 0)}
                50%{transform: translate(-10px, 0)}
                100%{transform: translate(0, 0)}
            }

            .triangle-float1 {
                animation: float1 5s infinite;
            }

            @keyframes float2 {
                0%{transform: translate(0, 0)}
                50%{transform: translate(-5px, -5px)}
                100%{transform: translate(0, 0)}
            }

            .triangle-float2 {
                animation: float2 4s infinite;
            }

            @keyframes float3 {
                0%{transform: translate(0, 0)}
                50%{transform: translate(0, -10px)}
                100%{transform: translate(0, 0)}
            }

            .triangle-float3 {
                animation: float3 6s infinite;
            }
        </style></defs></svg>